<svg xmlns="http://www.w3.org/2000/svg" version="1.1" xmlns:xlink="http://www.w3.org/1999/xlink" xmlns:svgjs="http://svgjs.com/svgjs" width="1440" height="560" preserveAspectRatio="none" viewBox="0 0 1440 560"><g mask="url(&quot;#SvgjsMask1012&quot;)" fill="none"><rect width="1440" height="560" x="0" y="0" fill="rgba(212, 233, 255, 1)"></rect><path d="M1048 470L1047 847" stroke-width="10" stroke="url(#SvgjsLinearGradient1013)" stroke-linecap="round" class="Down"></path><path d="M115 280L114 -109" stroke-width="6" stroke="url(#SvgjsLinearGradient1014)" stroke-linecap="round" class="Up"></path><path d="M304 360L303 130" stroke-width="8" stroke="url(#SvgjsLinearGradient1013)" stroke-linecap="round" class="Down"></path><path d="M204 531L203 146" stroke-width="8" stroke="url(#SvgjsLinearGradient1013)" stroke-linecap="round" class="Down"></path><path d="M536 300L535 35" stroke-width="8" stroke="url(#SvgjsLinearGradient1013)" stroke-linecap="round" class="Down"></path><path d="M1306 1L1305 174" stroke-width="8" stroke="url(#SvgjsLinearGradient1014)" stroke-linecap="round" class="Up"></path><path d="M1158 114L1157 -98" stroke-width="6" stroke="url(#SvgjsLinearGradient1013)" stroke-linecap="round" class="Down"></path><path d="M1121 158L1120 -52" stroke-width="10" stroke="url(#SvgjsLinearGradient1014)" stroke-linecap="round" class="Up"></path><path d="M257 136L256 514" stroke-width="10" stroke="url(#SvgjsLinearGradient1014)" stroke-linecap="round" class="Up"></path><path d="M791 478L790 299" stroke-width="8" stroke="url(#SvgjsLinearGradient1014)" stroke-linecap="round" class="Up"></path><path d="M1009 474L1008 188" stroke-width="10" stroke="url(#SvgjsLinearGradient1013)" stroke-linecap="round" class="Down"></path><path d="M1333 451L1332 669" stroke-width="10" stroke="url(#SvgjsLinearGradient1014)" stroke-linecap="round" class="Up"></path><path d="M1206 138L1205 527" stroke-width="8" stroke="url(#SvgjsLinearGradient1013)" stroke-linecap="round" class="Down"></path><path d="M72 283L71 88" stroke-width="10" stroke="url(#SvgjsLinearGradient1014)" stroke-linecap="round" class="Up"></path><path d="M515 119L514 -262" stroke-width="8" stroke="url(#SvgjsLinearGradient1014)" stroke-linecap="round" class="Up"></path><path d="M1002 362L1001 33" stroke-width="8" stroke="url(#SvgjsLinearGradient1013)" stroke-linecap="round" class="Down"></path><path d="M42 62L41 357" stroke-width="6" stroke="url(#SvgjsLinearGradient1013)" stroke-linecap="round" class="Down"></path><path d="M427 471L426 786" stroke-width="10" stroke="url(#SvgjsLinearGradient1013)" stroke-linecap="round" class="Down"></path><path d="M1170 6L1169 315" stroke-width="8" stroke="url(#SvgjsLinearGradient1013)" stroke-linecap="round" class="Down"></path><path d="M460 454L459 304" stroke-width="10" stroke="url(#SvgjsLinearGradient1013)" stroke-linecap="round" class="Down"></path><path d="M434 489L433 137" stroke-width="10" stroke="url(#SvgjsLinearGradient1013)" stroke-linecap="round" class="Down"></path><path d="M318 424L317 674" stroke-width="10" stroke="url(#SvgjsLinearGradient1013)" stroke-linecap="round" class="Down"></path><path d="M481 394L480 164" stroke-width="8" stroke="url(#SvgjsLinearGradient1013)" stroke-linecap="round" class="Down"></path><path d="M1114 420L1113 25" stroke-width="6" stroke="url(#SvgjsLinearGradient1014)" stroke-linecap="round" class="Up"></path><path d="M265 308L264 669" stroke-width="8" stroke="url(#SvgjsLinearGradient1013)" stroke-linecap="round" class="Down"></path><path d="M1284 476L1283 747" stroke-width="10" stroke="url(#SvgjsLinearGradient1014)" stroke-linecap="round" class="Up"></path><path d="M1342 234L1341 507" stroke-width="8" stroke="url(#SvgjsLinearGradient1013)" stroke-linecap="round" class="Down"></path><path d="M194 493L193 125" stroke-width="8" stroke="url(#SvgjsLinearGradient1013)" stroke-linecap="round" class="Down"></path><path d="M450 431L449 761" stroke-width="8" stroke="url(#SvgjsLinearGradient1014)" stroke-linecap="round" class="Up"></path><path d="M922 229L921 537" stroke-width="8" stroke="url(#SvgjsLinearGradient1014)" stroke-linecap="round" class="Up"></path><path d="M1067 184L1066 468" stroke-width="8" stroke="url(#SvgjsLinearGradient1014)" stroke-linecap="round" class="Up"></path><path d="M385 384L384 100" stroke-width="10" stroke="url(#SvgjsLinearGradient1013)" stroke-linecap="round" class="Down"></path><path d="M670 338L669 544" stroke-width="8" stroke="url(#SvgjsLinearGradient1014)" stroke-linecap="round" class="Up"></path><path d="M767 399L766 66" stroke-width="6" stroke="url(#SvgjsLinearGradient1013)" stroke-linecap="round" class="Down"></path><path d="M686 371L685 552" stroke-width="6" stroke="url(#SvgjsLinearGradient1013)" stroke-linecap="round" class="Down"></path><path d="M542 338L541 686" stroke-width="8" stroke="url(#SvgjsLinearGradient1013)" stroke-linecap="round" class="Down"></path></g><defs><mask id="SvgjsMask1012"><rect width="1440" height="560" fill="#ffffff"></rect></mask><linearGradient x1="0%" y1="0%" x2="0%" y2="100%" id="SvgjsLinearGradient1013"><stop stop-color="rgba(0, 109, 229, 0)" offset="0"></stop><stop stop-color="rgba(0, 109, 229, 1)" offset="1"></stop></linearGradient><linearGradient x1="0%" y1="100%" x2="0%" y2="0%" id="SvgjsLinearGradient1014"><stop stop-color="rgba(0, 109, 229, 0)" offset="0"></stop><stop stop-color="rgba(0, 109, 229, 1)" offset="1"></stop></linearGradient></defs></svg>